PathFileType	4	(X/Y/Z)	TVC_60_BWA01_walk_RCNL2025.trc
DataRate	CameraRate	NumFrames	NumMarkers	Units	OrigDataRate	OrigDataStartFrame	OrigNumFrames
100	100	7	27	mm	100	193	384
Frame#	Time	R_Shoulder			L_Shoulder			C7			J_Notch			R_Elbow			L_Elbow			R_Wrist			L_Wrist			R_Asis			L_Asis			R_Psis			L_Psis			Sacral			Thoracic			Sternum			R_Thigh_Lateral			R_Knee_Lateral			R_Shank_Lateral			R_Ankle_Lateral			R_Heel			R_Toe			L_Thigh_Lateral			L_Knee_Lateral			L_Shank_Lateral			L_Ankle_Lateral			L_Heel			L_Toe		
		X1	Y1	Z1	X2	Y2	Z2	X3	Y3	Z3	X4	Y4	Z4	X5	Y5	Z5	X6	Y6	Z6	X7	Y7	Z7	X8	Y8	Z8	X9	Y9	Z9	X10	Y10	Z10	X11	Y11	Z11	X12	Y12	Z12	X13	Y13	Z13	X14	Y14	Z14	X15	Y15	Z15	X16	Y16	Z16	X17	Y17	Z17	X18	Y18	Z18	X19	Y19	Z19	X20	Y20	Z20	X21	Y21	Z21	X22	Y22	Z22	X23	Y23	Z23	X24	Y24	Z24	X25	Y25	Z25	X26	Y26	Z26	X27	Y27	Z27
193	1.92000000	481.222626	1308.757935	-3.364394	464.505127	1334.695923	-356.119263	416.425446	1388.724121	-180.331360	523.664429	1256.616211	-186.704224	362.503265	995.206238	72.882774	454.009033	993.234680	-432.139954	399.395981	761.434509	107.577873	565.897064	790.661377	-477.359619	504.606934	899.333740	-43.045853	482.678589	904.129272	-330.132324	322.190948	894.943604	-111.148941	313.449493	900.811646	-220.694061	317.820221	897.877625	-165.921501	356.833496	1182.583252	-180.514999	545.787903	1062.160400	-179.317566	601.491760	619.013733	37.431931	649.081604	469.700348	-33.897015	653.835022	257.713898	0.440590	649.936707	78.638748	-71.087105	613.986328	70.135620	-125.461540	778.067139	74.930656	-62.012230	425.167419	617.478821	-376.885040	421.724670	428.089294	-289.596558	356.945038	243.796829	-309.516022	295.632874	59.993679	-221.363144	250.875046	66.446472	-178.782196	421.180511	41.683731	-211.845673
194	1.93000000	489.062561	1308.048828	-2.853980	471.959961	1333.947510	-355.611938	424.188354	1387.969238	-179.740448	531.321289	1255.792114	-186.295822	368.577759	995.043396	73.064255	462.207977	992.576477	-431.935669	404.103516	761.138641	108.140060	574.705322	790.367371	-477.352005	512.249573	898.304443	-42.867249	489.592590	903.453186	-329.942566	329.694122	894.245239	-110.513924	320.669312	900.237427	-219.970901	325.181717	897.241333	-165.242413	364.499451	1181.876709	-179.822266	553.228210	1061.260376	-179.098312	606.935059	617.910950	37.525711	656.165344	469.046417	-34.101925	668.763367	256.979767	0.649928	671.960815	78.056488	-70.654137	635.818726	68.087692	-124.660965	800.392578	78.712418	-63.111031	430.347076	617.042175	-376.879883	424.534424	427.736389	-289.477173	358.317230	243.972672	-309.381989	295.802124	60.460384	-221.223312	251.127701	67.205780	-178.615814	421.197784	41.688087	-211.799713
195	1.94000000	496.966949	1307.331055	-2.284463	479.414154	1333.188599	-355.043823	431.979187	1387.210083	-179.079041	539.023926	1254.974487	-185.835602	374.846100	994.841064	73.311020	470.331268	991.900085	-431.635559	409.064026	760.811310	108.744118	583.391968	790.035614	-477.271835	520.007935	897.258667	-42.652683	496.565247	902.791443	-329.716461	337.313324	893.512268	-109.802948	327.985596	899.638062	-219.162506	332.649460	896.575165	-164.482727	372.226501	1181.151855	-179.053925	560.736206	1060.363281	-178.834091	612.247192	616.691040	37.557293	663.153198	468.275940	-34.344799	683.341370	256.305695	0.864042	692.966003	77.791832	-70.043434	656.561584	66.374779	-123.597633	821.612061	82.661903	-64.235695	435.562347	616.646545	-376.845825	427.391785	427.441528	-289.347290	359.711212	244.232620	-309.228577	295.990692	61.020641	-221.068237	251.419800	68.076889	-178.432022	421.200073	41.695351	-211.771164
196	1.95000000	504.932678	1306.609497	-1.652578	486.872742	1332.427246	-354.412262	439.800232	1386.453003	-178.345901	546.775574	1254.171143	-185.319885	381.309906	994.600220	73.624054	478.379883	991.213562	-431.238892	414.283569	760.453583	109.392902	591.951904	789.670868	-477.118362	527.890747	896.204956	-42.403297	503.606750	902.146973	-329.456116	345.057281	892.751953	-109.017151	335.408783	899.019836	-218.270889	340.233032	895.885895	-163.644020	380.018768	1180.414185	-178.212433	568.319763	1059.477417	-178.522339	617.481995	615.374023	37.528198	670.096069	467.408905	-34.623199	697.486389	255.739227	1.083631	712.788513	77.754250	-69.302193	676.080566	64.932030	-122.347862	841.580017	86.620644	-65.332848	440.804932	616.297729	-376.768585	430.311005	427.209290	-289.208160	361.135284	244.582932	-309.059052	296.201935	61.682205	-220.903580	251.753799	69.066910	-178.235886	421.186981	41.704262	-211.765060
197	1.96000000	512.956543	1305.889038	-0.955483	494.340851	1331.671875	-353.714783	447.653717	1385.704590	-177.540176	554.579468	1253.390381	-184.745255	387.970215	994.322205	74.004227	486.354797	990.525391	-430.744812	419.768097	760.067169	110.089115	600.380157	789.278381	-476.890991	535.905945	895.152344	-42.120037	510.728821	901.521729	-329.163116	352.933838	891.972778	-108.158821	342.949249	898.389893	-217.299637	347.941544	895.181335	-162.729229	387.880188	1179.669189	-177.300766	575.987122	1058.611206	-178.160706	622.694702	613.979126	37.447014	677.044067	466.465118	-34.930073	711.091675	255.300751	1.307993	731.261963	77.844772	-68.492516	694.241882	63.692566	-121.008018	860.145447	90.405472	-66.352783	446.070801	616.000366	-376.638367	433.307861	427.043030	-289.061005	362.600006	245.029068	-308.879150	296.439819	62.451218	-220.738037	252.131470	70.182220	-178.036377	421.160553	41.713531	-211.785553
198	1.97000000	521.035156	1305.174805	-0.190847	501.823486	1330.931396	-352.949524	455.541626	1384.971436	-176.661484	562.438477	1252.640503	-184.108734	394.827484	994.009033	74.452286	494.256775	989.844421	-430.152618	425.523315	759.654449	110.835312	608.671722	788.863892	-476.589203	544.060303	894.109558	-41.803501	517.944824	900.917053	-328.838379	360.949646	891.184509	-107.231354	350.617188	897.755798	-216.253860	355.783417	894.470154	-161.742607	395.814178	1178.922974	-176.322403	583.746582	1057.773682	-177.746994	627.939697	612.523621	37.328690	684.044189	465.463654	-35.254173	724.036133	254.970886	1.530209	748.228821	77.960197	-67.686073	710.919495	62.589653	-119.686432	877.162659	93.819023	-67.255035	451.360779	615.758362	-376.454315	436.398804	426.944702	-288.906982	364.118469	245.575500	-308.696533	296.708984	63.332371	-220.582870	252.554230	71.428642	-177.846268	421.126007	41.722351	-211.835068
199	1.98000000	529.165222	1304.472168	0.643064	509.325836	1330.214722	-352.115082	463.465820	1384.260254	-175.709946	570.355530	1251.929688	-183.407822	401.881592	993.663147	74.968796	502.086731	989.179810	-429.461639	431.554688	759.218384	111.633804	616.821869	788.433472	-476.212646	552.359314	893.085693	-41.453770	525.269531	900.333496	-328.481689	369.110016	890.397949	-106.239250	358.422180	897.125671	-215.140167	363.766098	893.761810	-160.689709	403.823883	1178.181641	-175.281403	591.606567	1056.973999	-177.279297	633.267761	611.022766	37.193161	691.138733	464.422485	-35.580826	736.195801	254.687958	1.733715	763.553101	77.999352	-66.957191	726.004944	61.560017	-118.493446	892.503723	96.664757	-68.011765	456.680511	615.574402	-376.226074	439.600616	426.915039	-288.747162	365.706421	246.225586	-308.520355	297.014832	64.329224	-220.451111	253.023392	72.811577	-177.681519	421.091675	41.730907	-211.913742
